REM DIRINDEX 1\2,1\3,1\4,1\5\6,1\5\7,1\8
REM DIRNAME folder01,folder02,folder03,folder04,folder05,folder06,folder07,folder08
TITLE ""
FILE "136 Åy136ÅzUnit8 (1537 stem_1548 desperate).mp3" MP3
  TRACK 01 AUDIO
    TITLE "0:"
    INDEX 01 00:00:00
  TRACK 02 AUDIO
    TITLE "2:cjc115_5324"
    INDEX 01 00:00:05
  TRACK 03 AUDIO
    TITLE "0:"
    INDEX 01 00:01:22
  TRACK 04 AUDIO
    TITLE "3:cjc115_5325"
    INDEX 01 00:01:30
  TRACK 05 AUDIO
    TITLE "0:"
    INDEX 01 00:03:15
  TRACK 06 AUDIO
    TITLE "4:cjc115_5326"
    INDEX 01 00:03:23
  TRACK 07 AUDIO
    TITLE "0:"
    INDEX 01 00:06:12
  TRACK 08 AUDIO
    TITLE "2:cjc115_5327"
    INDEX 01 00:07:23
  TRACK 09 AUDIO
    TITLE "0:"
    INDEX 01 00:08:32
  TRACK 10 AUDIO
    TITLE "3:cjc115_5328"
    INDEX 01 00:08:40
  TRACK 11 AUDIO
    TITLE "0:"
    INDEX 01 00:10:51
  TRACK 12 AUDIO
    TITLE "4:cjc115_5329"
    INDEX 01 00:10:63
  TRACK 13 AUDIO
    TITLE "0:"
    INDEX 01 00:15:38
  TRACK 14 AUDIO
    TITLE "2:cjc115_5330"
    INDEX 01 00:16:48
  TRACK 15 AUDIO
    TITLE "0:"
    INDEX 01 00:17:74
  TRACK 16 AUDIO
    TITLE "3:cjc115_5331"
    INDEX 01 00:18:07
  TRACK 17 AUDIO
    TITLE "0:"
    INDEX 01 00:20:49
  TRACK 18 AUDIO
    TITLE "4:cjc115_5332"
    INDEX 01 00:20:55
  TRACK 19 AUDIO
    TITLE "0:"
    INDEX 01 00:24:41
  TRACK 20 AUDIO
    TITLE "2:cjc115_5333"
    INDEX 01 00:25:50
  TRACK 21 AUDIO
    TITLE "0:"
    INDEX 01 00:26:69
  TRACK 22 AUDIO
    TITLE "3:cjc115_5334"
    INDEX 01 00:27:02
  TRACK 23 AUDIO
    TITLE "0:"
    INDEX 01 00:28:64
  TRACK 24 AUDIO
    TITLE "4:cjc115_5335"
    INDEX 01 00:28:68
  TRACK 25 AUDIO
    TITLE "0:"
    INDEX 01 00:31:49
  TRACK 26 AUDIO
    TITLE "2:cjc115_5336"
    INDEX 01 00:32:60
  TRACK 27 AUDIO
    TITLE "0:"
    INDEX 01 00:34:06
  TRACK 28 AUDIO
    TITLE "3:cjc115_5337"
    INDEX 01 00:34:12
  TRACK 29 AUDIO
    TITLE "0:"
    INDEX 01 00:36:60
  TRACK 30 AUDIO
    TITLE "4:cjc115_5338"
    INDEX 01 00:36:72
  TRACK 31 AUDIO
    TITLE "0:"
    INDEX 01 00:42:49
  TRACK 32 AUDIO
    TITLE "2:cjc115_5339"
    INDEX 01 00:43:58
  TRACK 33 AUDIO
    TITLE "0:"
    INDEX 01 00:44:71
  TRACK 34 AUDIO
    TITLE "3:cjc115_5340"
    INDEX 01 00:45:06
  TRACK 35 AUDIO
    TITLE "0:"
    INDEX 01 00:45:73
  TRACK 36 AUDIO
    TITLE "4:cjc115_5341"
    INDEX 01 00:46:07
  TRACK 37 AUDIO
    TITLE "0:"
    INDEX 01 00:51:16
  TRACK 38 AUDIO
    TITLE "2:cjc115_5342"
    INDEX 01 00:52:26
  TRACK 39 AUDIO
    TITLE "0:"
    INDEX 01 00:53:58
  TRACK 40 AUDIO
    TITLE "3:cjc115_5343"
    INDEX 01 00:53:66
  TRACK 41 AUDIO
    TITLE "0:"
    INDEX 01 00:56:29
  TRACK 42 AUDIO
    TITLE "4:cjc115_5344"
    INDEX 01 00:56:37
  TRACK 43 AUDIO
    TITLE "0:"
    INDEX 01 01:01:25
  TRACK 44 AUDIO
    TITLE "2:cjc115_5345"
    INDEX 01 01:02:38
  TRACK 45 AUDIO
    TITLE "0:"
    INDEX 01 01:03:61
  TRACK 46 AUDIO
    TITLE "3:cjc115_5346"
    INDEX 01 01:03:71
  TRACK 47 AUDIO
    TITLE "0:"
    INDEX 01 01:08:58
  TRACK 48 AUDIO
    TITLE "4:cjc115_5347"
    INDEX 01 01:08:68
  TRACK 49 AUDIO
    TITLE "0:"
    INDEX 01 01:12:19
  TRACK 50 AUDIO
    TITLE "2:cjc115_5348"
    INDEX 01 01:13:30
  TRACK 51 AUDIO
    TITLE "0:"
    INDEX 01 01:14:43
  TRACK 52 AUDIO
    TITLE "3:cjc115_5349"
    INDEX 01 01:14:51
  TRACK 53 AUDIO
    TITLE "0:"
    INDEX 01 01:16:12
  TRACK 54 AUDIO
    TITLE "4:cjc115_5350"
    INDEX 01 01:16:30
  TRACK 55 AUDIO
    TITLE "0:"
    INDEX 01 01:20:61
  TRACK 56 AUDIO
    TITLE "2:cjc115_5351"
    INDEX 01 01:21:70
  TRACK 57 AUDIO
    TITLE "0:"
    INDEX 01 01:23:15
  TRACK 58 AUDIO
    TITLE "3:cjc115_5352"
    INDEX 01 01:23:24
  TRACK 59 AUDIO
    TITLE "0:"
    INDEX 01 01:25:43
  TRACK 60 AUDIO
    TITLE "4:cjc115_5353"
    INDEX 01 01:25:47
  TRACK 61 AUDIO
    TITLE "0:"
    INDEX 01 01:28:74
  TRACK 62 AUDIO
    TITLE "2:cjc115_5354"
    INDEX 01 01:30:07
  TRACK 63 AUDIO
    TITLE "0:"
    INDEX 01 01:31:34
  TRACK 64 AUDIO
    TITLE "3:cjc115_5355"
    INDEX 01 01:31:45
  TRACK 65 AUDIO
    TITLE "0:"
    INDEX 01 01:33:36
  TRACK 66 AUDIO
    TITLE "4:cjc115_5356"
    INDEX 01 01:33:40
  TRACK 67 AUDIO
    TITLE "0:"
    INDEX 01 01:37:54
  TRACK 68 AUDIO
    TITLE "2:cjc115_5357"
    INDEX 01 01:38:63
  TRACK 69 AUDIO
    TITLE "0:"
    INDEX 01 01:40:13
  TRACK 70 AUDIO
    TITLE "3:cjc115_5358"
    INDEX 01 01:40:23
  TRACK 71 AUDIO
    TITLE "0:"
    INDEX 01 01:42:67
  TRACK 72 AUDIO
    TITLE "4:cjc115_5359"
    INDEX 01 01:43:00
  TRACK 73 AUDIO
    TITLE "0:"
    INDEX 01 01:47:58
